<?xml version="1.0" encoding="UTF-8" standalone="no"?>
<!-- Generator: Adobe Illustrator 16.0.0, SVG Export Plug-In . SVG Version: 6.00 Build 0)  -->

<svg
   xmlns:dc="http://purl.org/dc/elements/1.1/"
   xmlns:cc="http://creativecommons.org/ns#"
   xmlns:rdf="http://www.w3.org/1999/02/22-rdf-syntax-ns#"
   xmlns:svg="http://www.w3.org/2000/svg"
   xmlns="http://www.w3.org/2000/svg"
   xmlns:sodipodi="http://sodipodi.sourceforge.net/DTD/sodipodi-0.dtd"
   xmlns:inkscape="http://www.inkscape.org/namespaces/inkscape"
   version="1.1"
   id="Capa_1"
   x="0px"
   y="0px"
   width="612px"
   height="612px"
   viewBox="0 0 612 612"
   style="enable-background:new 0 0 612 612;"
   xml:space="preserve"
   sodipodi:docname="cross.svg"
   inkscape:version="0.92.5 (2060ec1f9f, 2020-04-08)"><metadata
   id="metadata44"><rdf:RDF><cc:Work
       rdf:about=""><dc:format>image/svg+xml</dc:format><dc:type
         rdf:resource="http://purl.org/dc/dcmitype/StillImage" /></cc:Work></rdf:RDF></metadata><defs
   id="defs42" /><sodipodi:namedview
   pagecolor="#ffffff"
   bordercolor="#666666"
   borderopacity="1"
   objecttolerance="10"
   gridtolerance="10"
   guidetolerance="10"
   inkscape:pageopacity="0"
   inkscape:pageshadow="2"
   inkscape:window-width="1330"
   inkscape:window-height="740"
   id="namedview40"
   showgrid="false"
   inkscape:zoom="0.38562092"
   inkscape:cx="306"
   inkscape:cy="306"
   inkscape:window-x="36"
   inkscape:window-y="0"
   inkscape:window-maximized="1"
   inkscape:current-layer="Capa_1" />
<g
   id="g7"
   style="fill:#ff0000">
	<g
   id="_x31_0_41_"
   style="fill:#ff0000">
		<g
   id="g4"
   style="fill:#ff0000">
			<path
   d="M415.338,196.662c-7.535-7.535-19.737-7.535-27.253,0l-82.181,82.18l-81.033-81.032c-7.478-7.478-19.584-7.478-27.042,0     c-7.478,7.478-7.478,19.584,0,27.042l81.033,81.033l-81.587,81.587c-7.535,7.535-7.535,19.736,0,27.253s19.737,7.517,27.253,0     l81.588-81.587l81.032,81.032c7.478,7.478,19.584,7.478,27.043,0c7.478-7.478,7.478-19.584,0-27.043l-81.033-81.032l82.181-82.18     C422.873,216.399,422.873,204.179,415.338,196.662z M306,0C136.992,0,0,136.992,0,306s136.992,306,306,306     c168.988,0,306-137.012,306-306S475.008,0,306,0z M306,573.75C158.125,573.75,38.25,453.875,38.25,306     C38.25,158.125,158.125,38.25,306,38.25c147.875,0,267.75,119.875,267.75,267.75C573.75,453.875,453.875,573.75,306,573.75z"
   id="path2"
   style="fill:#ff0000" />
		</g>
	</g>
</g>
<g
   id="g9">
</g>
<g
   id="g11">
</g>
<g
   id="g13">
</g>
<g
   id="g15">
</g>
<g
   id="g17">
</g>
<g
   id="g19">
</g>
<g
   id="g21">
</g>
<g
   id="g23">
</g>
<g
   id="g25">
</g>
<g
   id="g27">
</g>
<g
   id="g29">
</g>
<g
   id="g31">
</g>
<g
   id="g33">
</g>
<g
   id="g35">
</g>
<g
   id="g37">
</g>
</svg>